<svg width="43" height="17" viewBox="0 0 43 17" fill="none" xmlns="http://www.w3.org/2000/svg">
<path d="M40.7092 1.33457L42.4426 7.80377C42.6121 8.43614 42.2379 9.08415 41.6056 9.25359L35.1364 10.987C34.504 11.1564 33.856 10.7823 33.6866 10.15C33.5171 9.51759 33.8913 8.86958 34.5236 8.70014L38.2321 7.70646L36.6059 6.76759C31.71 3.94092 25.3634 2.24399 20.6197 4.60451C25.6021 6.35323 26.1136 10.7335 24.5342 13.469C22.9022 16.2959 19.2746 17.2679 16.4477 15.6358C13.8639 14.144 12.1674 10.5684 14.9575 6.52905C10.437 7.3191 5.59243 10.7588 2.64263 15.868C2.31586 16.434 1.59233 16.6287 1.02533 16.3014C0.458321 15.974 0.265203 15.2501 0.591972 14.6841C4.52386 7.87386 11.2907 3.79684 17.2411 3.98267C22.927 -0.829162 31.4513 1.05736 37.7899 4.71694L39.416 5.65581L38.4224 1.94734C38.2529 1.31498 38.627 0.666969 39.2594 0.497525C39.8918 0.328085 40.5398 0.702212 40.7092 1.33457ZM17.6317 13.5851C19.3276 14.5643 21.5045 13.981 22.4836 12.2851C23.7936 10.016 22.5864 6.99226 18.0888 6.42845C14.9162 9.61261 15.5113 12.3609 17.6317 13.5851Z" fill="#3A3A3B"/>
</svg>
